<?xml version="1.0" standalone="no"?>
<!DOCTYPE svg PUBLIC "-//W3C//DTD SVG 20010904//EN"
 "http://www.w3.org/TR/2001/REC-SVG-20010904/DTD/svg10.dtd">
<svg version="1.0" xmlns="http://www.w3.org/2000/svg"
 width="1200.000000pt" height="600.000000pt" viewBox="0 0 1200.000000 600.000000"
 preserveAspectRatio="xMidYMid meet">

<g transform="translate(0.000000,600.000000) scale(0.100000,-0.100000)"
fill="#000000" stroke="none">
<path d="M147 5986 c-51 -14 -98 -52 -125 -101 -15 -27 -17 -101 -20 -748 -3
-803 -5 -774 68 -923 71 -145 231 -274 381 -309 87 -19 218 -19 293 0 96 25
211 91 280 161 73 72 140 193 161 287 12 54 14 -76 14 -953 l1 -1015 43 46
c23 26 53 61 67 79 14 18 30 37 35 44 26 28 123 146 150 181 51 65 74 87 86
83 7 -2 23 -35 36 -73 l24 -70 -6 70 c-3 39 -8 158 -11 265 -7 200 -5 220 40
435 40 193 171 485 303 677 18 26 33 50 33 52 0 2 -21 -3 -47 -11 -70 -23
-243 -22 -313 1 -196 66 -351 210 -410 381 -34 100 -40 214 -40 848 l0 607
-497 -1 c-373 0 -510 -4 -546 -13z"/>
<path d="M2398 5303 c-3 -636 -5 -702 -20 -742 -21 -50 -35 -26 125 -211 235
-273 399 -582 477 -901 54 -223 60 -369 25 -684 -7 -66 -12 -121 -10 -123 1
-2 13 30 25 70 30 97 38 118 47 118 5 0 27 -26 50 -58 23 -31 107 -145 187
-252 l146 -195 0 -152 0 -153 -254 0 -255 0 -6 -57 c-3 -32 -8 -77 -11 -101
l-5 -42 -170 0 c-154 0 -169 -2 -169 -17 0 -10 -4 -88 -10 -173 -5 -85 -18
-346 -29 -580 -27 -564 -29 -587 -49 -595 -8 -3 -21 0 -27 7 -8 9 -19 204 -34
638 -12 344 -26 715 -31 825 -5 110 -12 270 -15 355 -3 85 -9 189 -13 230 l-7
75 -6 -115 c-3 -63 -13 -281 -22 -485 -10 -203 -22 -460 -28 -570 -6 -110 -13
-248 -15 -307 -6 -113 -13 -131 -52 -121 -20 5 -22 12 -22 72 0 118 -20 523
-32 639 l-11 112 -43 0 -42 0 -6 -132 c-3 -73 -9 -218 -12 -323 -3 -104 -8
-193 -11 -197 -7 -13 -50 -9 -61 5 -5 6 -17 98 -26 202 -9 105 -24 245 -33
312 l-16 122 -101 3 -101 3 -9 103 -9 102 -253 0 -254 0 0 -62 c-1 -346 -323
-620 -676 -577 -239 30 -445 208 -506 439 -16 63 -17 37 -17 -767 -1 -569 2
-848 10 -883 12 -57 52 -110 103 -138 29 -16 190 -17 2358 -20 l2328 -2 1
1902 c0 1890 0 1903 19 1830 11 -40 36 -103 57 -140 l38 -67 5 330 5 330 65 3
c36 1 70 -1 75 -5 6 -5 26 -42 44 -83 18 -41 42 -93 52 -115 10 -22 43 -98 75
-170 31 -71 67 -154 80 -183 13 -29 24 -54 24 -57 0 -2 5 -16 11 -31 10 -27
13 -22 70 106 91 204 99 221 124 275 26 56 72 158 100 223 l19 42 68 0 c64 0
68 -1 68 -22 0 -13 0 -179 0 -370 0 -211 3 -348 9 -348 20 0 95 99 131 175 38
79 38 81 51 272 12 177 11 194 -4 211 -21 23 -22 75 -2 92 13 11 15 124 15
906 l0 894 -600 0 -599 0 -3 -907 c-3 -887 -3 -909 -24 -964 -78 -217 -278
-376 -507 -404 l-57 -7 0 -870 c0 -823 -1 -869 -17 -866 -17 3 -18 54 -21 869
l-2 866 -83 16 c-204 40 -384 194 -459 392 l-23 60 -3 908 -3 907 -599 0 -599
0 -3 -697z"/>
<path d="M9600 5061 c0 -616 3 -942 10 -946 6 -3 10 -42 10 -85 l0 -79 73 -3
72 -3 3 -47 3 -48 -75 0 -76 0 0 -191 c0 -105 4 -199 10 -209 14 -26 65 -42
96 -30 40 16 44 13 44 -35 0 -55 -15 -65 -97 -65 -75 0 -121 23 -148 76 l-21
40 -28 -38 c-36 -50 -134 -132 -196 -163 -200 -102 -484 -80 -637 49 -16 13
-54 35 -84 49 -76 33 -128 82 -158 147 -21 47 -25 69 -25 155 -1 62 4 108 12
122 9 16 12 147 12 545 l-1 523 -23 -73 c-60 -185 -222 -339 -415 -396 -73
-21 -249 -21 -322 0 -134 40 -264 133 -341 246 -44 66 -62 105 -83 181 -12 46
-14 -4 -14 -468 l0 -520 22 30 c71 95 134 127 256 128 116 0 160 -14 215 -68
61 -62 86 -131 86 -240 0 -144 -54 -242 -165 -299 -69 -36 -196 -37 -270 -2
-47 21 -125 94 -125 116 0 6 -4 10 -10 10 -6 0 -10 -48 -10 -125 0 -188 -26
-280 -114 -395 -24 -32 -42 -61 -39 -64 4 -3 17 -6 30 -6 13 0 39 -7 58 -14
34 -15 35 -16 35 -75 0 -36 -4 -61 -10 -61 -6 0 -28 9 -50 20 -47 24 -132 35
-194 26 -33 -5 -56 -17 -82 -41 -35 -33 -36 -37 -32 -85 4 -43 11 -56 39 -80
19 -16 39 -29 46 -30 6 0 18 -6 25 -12 8 -7 45 -29 82 -48 150 -76 206 -144
206 -249 0 -74 -9 -99 -55 -149 -77 -86 -258 -113 -407 -63 l-68 23 0 62 c0
35 2 65 6 68 3 3 22 -3 42 -13 89 -45 106 -49 188 -49 118 0 174 37 174 116 0
27 -33 81 -59 99 -26 18 -145 84 -186 103 -104 49 -171 146 -163 236 l3 44
-105 4 c-120 5 -197 28 -287 84 -113 71 -202 178 -248 297 l-24 62 -1 -262 0
-262 38 -3 c34 -3 37 -6 40 -35 l3 -33 36 35 c38 37 75 48 138 43 l40 -3 3
-57 3 -57 -63 5 c-55 5 -67 3 -91 -16 -53 -42 -61 -77 -67 -295 l-5 -200 -37
-3 -38 -3 0 -487 c0 -268 -3 -720 -7 -1004 l-6 -518 2896 0 c2068 0 2911 3
2947 11 57 12 110 52 138 103 16 29 17 120 19 1176 1 1000 0 1138 -12 1088
-62 -253 -319 -448 -590 -448 -222 0 -437 138 -544 348 -24 47 -51 152 -51
200 0 29 -5 35 -37 49 -58 24 -155 23 -190 -3 -33 -25 -41 -65 -19 -98 9 -14
47 -37 93 -56 160 -66 183 -89 183 -183 0 -37 -5 -78 -11 -90 -44 -81 -214
-122 -340 -81 l-49 16 0 59 0 58 50 -26 c38 -20 66 -26 118 -27 77 -1 117 18
128 60 12 48 -28 82 -162 140 -34 14 -77 41 -95 60 -32 33 -34 39 -34 104 0
65 2 71 34 104 55 57 119 79 215 74 45 -3 89 -8 99 -12 16 -8 17 76 17 1683
l0 1691 -600 0 -600 0 0 -939z m-1362 -1122 c19 -7 22 -16 22 -59 0 -54 -5
-58 -48 -36 -98 49 -222 15 -222 -62 0 -28 48 -77 85 -86 65 -16 159 -71 186
-109 64 -89 25 -193 -91 -246 -57 -26 -190 -29 -249 -5 -38 15 -39 17 -43 70
-2 45 0 54 12 50 8 -2 41 -14 72 -25 103 -37 200 -19 213 41 12 52 -31 90
-155 138 -95 37 -140 89 -140 163 0 95 60 158 169 177 50 9 152 3 189 -11z
m-808 -1224 l0 -84 73 -3 72 -3 3 -47 3 -48 -76 0 -77 0 4 -192 c4 -238 5
-242 89 -236 l59 4 0 -39 c0 -51 -20 -66 -88 -67 -66 0 -120 26 -147 72 -18
30 -20 54 -23 246 l-4 212 -49 0 -50 0 3 48 3 47 47 3 47 3 3 71 3 71 35 13
c69 25 70 24 70 -71z m1410 0 l0 -85 75 0 75 0 0 -50 0 -50 -76 0 -75 0 3
-194 c3 -177 5 -196 23 -216 17 -19 27 -21 73 -17 l52 6 0 -43 c0 -56 -16 -69
-89 -70 -70 -1 -117 21 -151 73 -24 35 -25 42 -28 248 l-3 212 -113 0 c-112 0
-114 -1 -144 -30 -17 -17 -34 -43 -37 -59 -4 -17 -11 -32 -16 -35 -5 -4 -9
-91 -9 -196 l0 -189 -55 0 -55 0 2 303 3 302 50 0 50 0 3 -43 3 -43 22 32 c40
59 78 71 195 63 l102 -6 0 70 c0 74 7 87 50 95 72 13 70 15 70 -78z m-794
-108 c29 -20 49 -44 65 -80 21 -48 23 -68 27 -279 l4 -228 -61 0 -61 0 0 36 0
37 -22 -28 c-60 -77 -224 -86 -302 -17 -29 27 -56 88 -56 130 0 50 33 125 66
151 36 29 107 50 215 64 94 13 94 13 97 42 4 45 -30 92 -76 106 -50 14 -136
-2 -187 -37 -20 -13 -41 -22 -46 -19 -14 9 -11 91 4 103 7 6 35 20 62 31 40
17 68 20 140 18 80 -2 95 -5 131 -30z m2140 14 c55 -25 111 -94 130 -160 22
-75 15 -229 -13 -292 -65 -144 -224 -209 -352 -144 -27 13 -52 32 -57 42 -6
11 -11 -44 -14 -152 l-5 -170 -55 0 -55 0 0 440 0 440 55 0 55 0 5 -38 5 -39
25 27 c58 64 189 85 276 46z m-996 -188 c0 -207 7 -247 47 -301 19 -25 26 -27
91 -27 56 0 74 4 92 20 50 45 55 67 60 290 l5 210 55 0 55 0 0 -305 0 -305
-55 0 c-53 0 -55 1 -60 29 -5 27 -6 28 -19 12 -31 -37 -93 -60 -161 -60 -104
1 -166 41 -200 131 -18 48 -20 78 -20 272 0 120 3 221 7 224 3 4 28 7 55 7
l48 0 0 -197z"/>
<path d="M7915 2301 c-123 -22 -141 -31 -155 -79 -23 -74 22 -124 111 -124 90
0 149 65 149 163 0 33 -1 59 -2 58 -2 0 -48 -9 -103 -18z"/>
<path d="M9995 2538 c-39 -14 -80 -52 -100 -94 -21 -45 -22 -221 -1 -261 50
-97 183 -119 261 -43 55 53 81 188 54 283 -26 95 -122 147 -214 115z"/>
<path d="M5663 3933 c-12 -27 -72 -160 -133 -298 -61 -137 -117 -261 -125
-275 -17 -32 -72 -41 -81 -13 -6 17 -27 64 -74 168 -10 22 -46 103 -80 180
-34 77 -73 163 -85 190 -13 28 -27 59 -31 70 -9 20 -18 -529 -10 -552 3 -6 42
-30 88 -53 121 -60 235 -78 357 -57 49 8 114 26 145 40 l56 26 0 310 c0 171
-1 311 -3 311 -1 0 -12 -21 -24 -47z"/>
<path d="M7455 3865 c-5 -2 -22 -6 -37 -9 -15 -4 -43 -20 -63 -37 -60 -53 -83
-185 -50 -280 55 -154 261 -175 337 -34 24 43 28 62 28 133 0 137 -53 213
-160 226 -25 3 -49 4 -55 1z"/>
<path d="M2240 3775 c-158 -72 -183 -283 -45 -387 108 -82 258 -54 331 61 25
40 29 55 29 121 0 68 -3 79 -32 122 -47 67 -90 90 -177 95 -50 2 -81 -1 -106
-12z"/>
</g>
</svg>
